<svg xmlns="http://www.w3.org/2000/svg" viewBox="0 0 128 128">
  <style>
    .base{fill:#10162e;stroke:#ff6f32;stroke-width:7}
    .fill{fill:#ff6f32;stroke:#ff6f32;stroke-width:5}
    .accent,.line{fill:none;stroke:#f8cbb8;stroke-width:6}
    .accent{fill:#f8cbb8;fill-opacity:.22}
    .dot{fill:#f8cbb8;stroke:#ff6f32;stroke-width:3}
    path,circle,ellipse,rect{stroke-linecap:round;stroke-linejoin:round}
  </style>
  <path class="base" d="M64 111c-25 0-39-16-33-38 5-17 21-25 22-49 21 13 31 31 24 48 10-7 20-4 21 11 1 17-13 28-34 28Z"/><path class="fill" d="M64 100c-12 0-19-8-15-18 3-8 11-11 12-22 10 7 14 15 10 23 5-3 10-1 9 7-1 6-6 10-16 10Z"/><circle class="dot" cx="26" cy="29" r="6"/><circle class="dot" cx="100" cy="34" r="5"/><circle class="dot" cx="18" cy="57" r="4"/>
</svg>
