<svg xmlns="http://www.w3.org/2000/svg" viewBox="0 0 128 128">
  <style>
    .base{fill:#10162e;stroke:#bd8cff;stroke-width:7}
    .fill{fill:#bd8cff;stroke:#bd8cff;stroke-width:5}
    .accent,.line{fill:none;stroke:#e7d7fb;stroke-width:6}
    .accent{fill:#e7d7fb;fill-opacity:.22}
    .dot{fill:#e7d7fb;stroke:#bd8cff;stroke-width:3}
    path,circle,ellipse,rect{stroke-linecap:round;stroke-linejoin:round}
  </style>
  <path class="base" d="M13 41c15-18 30 18 45 0s30 18 45 0c6-7 11-8 14-7v52c-15 18-30-18-45 0s-30-18-45 0c-6 7-11 8-14 7Z"/><path class="accent" d="M18 61c14-15 27 15 41 0s27 15 41 0M29 103c12-11 23 11 35 0s23 11 35 0"/><circle class="dot" cx="64" cy="64" r="6"/>
</svg>
