<svg xmlns="http://www.w3.org/2000/svg" viewBox="0 0 128 128">
  <style>
    .base{fill:#10162e;stroke:#ff79b2;stroke-width:7}
    .fill{fill:#ff79b2;stroke:#ff79b2;stroke-width:5}
    .ghost{fill:#10162e;stroke:#ff79b2;stroke-width:6;opacity:.45}
    .accent,.line{fill:none;stroke:#fad1e2;stroke-width:6}
    .accent{fill:#fad1e2;fill-opacity:.22}
    .dot{fill:#fad1e2;stroke:#ff79b2;stroke-width:3}
    path,circle,ellipse,rect{stroke-linecap:round;stroke-linejoin:round}
  </style>
  <path class="line" d="M27 112V76m37 36V54m37 58V32"/><path class="base" d="M27 77C9 72 9 55 18 45c13 4 17 16 9 32Zm0 0c18-5 18-22 9-32-13 4-17 16-9 32Zm37-22c-18-5-18-22-9-32 13 4 17 16 9 32Zm0 0c18-5 18-22 9-32-13 4-17 16-9 32Zm37-22c-14-4-15-17-7-25 10 3 13 13 7 25Z"/><path class="accent" d="M18 112h92"/>
</svg>
